<svg width="533.736px" height="533.736px" viewBox="0 -50.87 533.736 533.736" xmlns="http://www.w3.org/2000/svg" xmlns:xlink="http://www.w3.org/1999/xlink">
  <defs>
    <clipPath id="clip-office_space_working">
      <rect width="533.736" height="432"/>
    </clipPath>
  </defs>
  <g id="office_space_working" data-name="office space working" clip-path="url(#clip-office_space_working)">
    <rect width="533.736" height="432" fill="#fff"/>
    <g id="office_lifestyle_7" data-name="office lifestyle 7" transform="translate(-3209.04)">
      <g id="Group_18" data-name="Group 18">
        <rect id="Rectangle_5" data-name="Rectangle 5" width="530.771" height="429.007" transform="translate(3210.522 1.496)" fill="#fff28b"/>
        <path id="Path_165" data-name="Path 165" d="M3210.523,0h530.771a1.5,1.5,0,0,1,1.5,1.5V430.5a1.5,1.5,0,0,1-1.5,1.5H3210.523a1.5,1.5,0,0,1-1.5-1.5V1.5a1.5,1.5,0,0,1,1.5-1.5ZM3739.8,2.993H3212.019V429.007H3739.8Z" fill="#1a1818" fill-rule="evenodd"/>
        <path id="Path_166" data-name="Path 166" d="M3556.359,182.961l-19.929-22.376-9.44-1.4-9.441,17.133,6.294,39.509,4.2,24.825,20.978,10.14,11.888,9.439,15.733-17.832-8.391-42.655Z" fill="#fff" fill-rule="evenodd"/>
        <path id="Path_167" data-name="Path 167" d="M3555.221,183.931l-19.547-21.947-7.877-1.168-8.694,15.777,6.212,38.989h0l4.067,24.062,20.283,9.8a1.482,1.482,0,0,1,.28.176h0l10.779,8.559,14.3-16.213-8.191-41.635-11.617-16.4Zm-17.674-24.34,19.929,22.376-.005,0a1.31,1.31,0,0,1,.1.131l11.807,16.669a1.485,1.485,0,0,1,.332.687l8.391,42.655h0a1.488,1.488,0,0,1-.346,1.274l-15.673,17.764-.008.009a1.493,1.493,0,0,1-2.1.24l-11.76-9.337-20.792-10.05a1.493,1.493,0,0,1-.858-1.115l-4.195-24.825h0l0-.012-6.281-39.426a1.49,1.49,0,0,1,.15-1.036l9.415-17.084a1.493,1.493,0,0,1,1.551-.808l9.441,1.4A1.492,1.492,0,0,1,3537.547,159.591Z" fill="#1a1818" fill-rule="evenodd"/>
        <path id="Path_168" data-name="Path 168" d="M3621.442,205.587l7.692-13.462L3637,195.8l6.294,9.964,2.261,11.47-4.708,31.711-25.174-1.4Z" fill="#fff" fill-rule="evenodd"/>
        <path id="Path_169" data-name="Path 169" d="M3620.144,204.845l7.693-13.462a1.494,1.494,0,0,1,2.03-.56l7.766,3.624a1.472,1.472,0,0,1,.63.556h0l6.294,9.964a1.5,1.5,0,0,1,.2.509h0l2.261,11.47a1.5,1.5,0,0,1,0,.559l-4.7,31.655a1.5,1.5,0,0,1-1.631,1.271l-25.1-1.394a1.494,1.494,0,0,1-1.409-1.573,1.672,1.672,0,0,1,.019-.173l5.761-41.9a1.5,1.5,0,0,1,.183-.543Zm9.608-10.786-6.872,12.025-5.508,40.059,22.2,1.233,4.471-30.108-2.16-10.953-5.908-9.353Z" fill="#1a1818" fill-rule="evenodd"/>
        <path id="Path_170" data-name="Path 170" d="M3518.525,121.187l13.636-28.845,14.511-13.986,15.385-7.342h8.391l10.14-1.049,12.587,5.245L3605.936,88.5l11.189,24.649,9.265,30.07,1.574,10.664-3.845,13.985-2.972,12.237,10.327,10.475,2.244,11.928-4.7,7.143.525,5.944-4.72,7.867,5.419,7.867-.35,6.993-9.037,12.039-39.388,4.568-12.937-34.264V194.085l-36.012-39.159-.176,9.615-1.048,11.363-3.72,7.036,3.971,10.754-7.646,14.45-5.718-22.293-1.048-14.491-4.371-6.993,1.4-16.434Z" fill="#f197ab" fill-rule="evenodd"/>
        <g id="Group_15" data-name="Group 15">
          <path id="Path_171" data-name="Path 171" d="M3517.175,120.549,3530.811,91.7a1.465,1.465,0,0,1,.354-.475l14.472-13.949a1.5,1.5,0,0,1,.393-.272v0l15.384-7.342a1.5,1.5,0,0,1,.644-.146h8.354l10.025-1.038a1.489,1.489,0,0,1,.724.106h0l12.588,5.245a1.5,1.5,0,0,1,.55.395l12.714,13.236a1.484,1.484,0,0,1,.285.422h0l11.19,24.65a1.518,1.518,0,0,1,.086.247l9.242,30a1.456,1.456,0,0,1,.051.222h0l1.574,10.664a1.486,1.486,0,0,1-.073.722l-3.8,13.83h0l-2.812,11.575a6.658,6.658,0,0,0,.685.944l8.543,8.264c.9,1.04,1.1.994,1.337,2.293.462,2.515,1.576,9.187,1.749,10.923a2.928,2.928,0,0,1-.52,1.781l-3.99,6.158.468,5.309a1.5,1.5,0,0,1-.269.993l-4.169,6.947,4.874,7.075a1.487,1.487,0,0,1,.262.917h0l-.349,6.993a1.485,1.485,0,0,1-.6,1.127l-8.9,12.063a1.488,1.488,0,0,1-.7.322v.005l-39.463,4.493a1.5,1.5,0,0,1-1.686-1.031l-12.905-34.18a1.5,1.5,0,0,1-.1-.526h0V194.665l-33.093-35.985-.108,5.885c0,.037,0,.074,0,.111h0v.006l-1.047,11.358a1.464,1.464,0,0,1-.166.56h0l-3.408,6.446,3.741,10.132a1.489,1.489,0,0,1-.11,1.264l-7.618,14.4a1.493,1.493,0,0,1-2.786-.41l-5.7-22.21a1.625,1.625,0,0,1-.043-.264h0l-1.021-14.12-4.176-6.681a1.487,1.487,0,0,1-.22-.912h0l1.4-16.434a1.54,1.54,0,0,1,.035-.22l4.353-26.643a1.53,1.53,0,0,1,.123-.4Zm16.22-27.324-13.431,28.412-4.319,26.436L3514.289,164l4.087,6.539a1.483,1.483,0,0,1,.242.717l1.04,14.379,4.72,18.4,5.529-10.449-3.742-10.132h0a1.483,1.483,0,0,1,.08-1.209l3.584-6.779,1.015-11.007.174-9.475a1.493,1.493,0,0,1,2.591-1.069L3569.558,193a1.491,1.491,0,0,1,.463,1.082V220.4l12.4,32.84,37.864-4.213,8.145-11.434.291-5.838-5.112-7.421a1.494,1.494,0,0,1-.071-1.641l4.468-7.445-.483-5.47h.006a1.492,1.492,0,0,1,.374-1.122l4.289-6.492-.323-2.226-1.65-8.591-9.148-9.15a9.038,9.038,0,0,1-1.14-1.228h0a1.487,1.487,0,0,1-.235-1.216l2.973-12.237h0l.01-.041,3.76-13.677-1.514-10.266-9.2-29.84-11.052-24.348L3592.316,76.47l-11.955-4.982-9.646,1a1.475,1.475,0,0,1-.267.024h-8.055l-14.866,7.1L3533.4,93.225Zm-2.23-2,1.634-.238A1.494,1.494,0,0,0,3531.165,91.229Z" fill="#1a1818" fill-rule="evenodd"/>
        </g>
        <path id="Path_172" data-name="Path 172" d="M3517.777,333.225l-40.21-3.146-4.2,23.6,12.062,3.671,23.6-9.615,21.154,9.615,2.1-17.482Z" fill="#f197ab" fill-rule="evenodd"/>
        <path id="Path_173" data-name="Path 173" d="M3517.408,334.7l-38.6-3.02-3.727,20.964,10.279,3.129,23.119-9.418a1.49,1.49,0,0,1,1.221.043l19.254,8.751,1.724-14.375-13.265-6.074Zm-39.729-6.107,40.21,3.146v0a1.5,1.5,0,0,1,.508.131l14.408,6.6a1.494,1.494,0,0,1,.967,1.578l-2.1,17.482h0a1.467,1.467,0,0,1-.122.439,1.494,1.494,0,0,1-1.976.748L3509,349.362,3486,358.735l0,0a1.482,1.482,0,0,1-.992.045l-11.95-3.637a1.5,1.5,0,0,1-1.153-1.718l4.2-23.6h0A1.5,1.5,0,0,1,3477.679,328.588Z" fill="#1a1818" fill-rule="evenodd"/>
        <path id="Path_174" data-name="Path 174" d="M3515.667,220.62l16.085-1.4,21.5,24.3,13.112-7.168,13.462,23.6-35.492,86.885-48.955-7.675-20.971-8.409,9.291-33.915,10.388-28.47-5.918-7.342-.824-16.984Z" fill="#57c5e6" fill-rule="evenodd"/>
        <path id="Path_175" data-name="Path 175" d="M3515.539,219.13l16.084-1.4a1.5,1.5,0,0,1,1.329.6l20.631,23.315,12.07-6.6a1.492,1.492,0,0,1,2.01.574h0l13.462,23.6a1.492,1.492,0,0,1,.046,1.385l-35.456,86.8a1.49,1.49,0,0,1-1.608.911h0l-48.955-7.675a1.534,1.534,0,0,1-.327-.089h0l-20.972-8.408a1.492,1.492,0,0,1-.861-1.855l9.27-33.838a1.161,1.161,0,0,1,.037-.116h0l10.1-27.68-5.39-6.687a1.484,1.484,0,0,1-.329-.895l-.823-16.954a1.489,1.489,0,0,1,.539-1.22v0l28.32-23.425a1.494,1.494,0,0,1,.825-.338Zm15.6,1.648-14.878,1.293-27.385,22.652.764,15.748,5.614,6.965h0a1.491,1.491,0,0,1,.24,1.443l-10.376,28.436-8.917,32.549,19.589,7.855,47.615,7.465,34.771-85.118-12.378-21.7-11.816,6.459a1.491,1.491,0,0,1-1.842-.315Z" fill="#1a1818" fill-rule="evenodd"/>
        <path id="Path_176" data-name="Path 176" d="M3544.66,186.921l-8.654,3.5-3.148-1.748,1.225-3.409,11.1-5.944,33.917,6.906,2.885,3.146-5.158,24.562.261,13.723,10.577,21.329-22.2,3.322-7.067-23.837-4.052-4.85-.784-6.77,3.827-4.755-3.3,1.345-1.208,2.764-2.535,1.748-6.268-7.642-1.157-6.372,2.157-6.915,7.33-7.073-1.1-1.455Z" fill="#fff" fill-rule="evenodd"/>
        <path id="Path_177" data-name="Path 177" d="M3544.773,188.484l-8.212,3.318a1.489,1.489,0,0,1-1.333-.111l-3.095-1.719a1.492,1.492,0,0,1-.657-1.867l1.2-3.349a1.482,1.482,0,0,1,.7-.812h0l11.1-5.944a1.486,1.486,0,0,1,1-.145h0l33.916,6.906a1.49,1.49,0,0,1,.851.51l2.834,3.092a1.491,1.491,0,0,1,.36,1.309h0l-5.125,24.407.252,13.207L3589,248.321a1.492,1.492,0,0,1-.678,2,1.464,1.464,0,0,1-.445.139v0l-22.2,3.322a1.5,1.5,0,0,1-1.669-1.126l-6.957-23.467-3.855-4.614a1.482,1.482,0,0,1-.338-.789h0l-.618-5.336-1.054.728a1.492,1.492,0,0,1-2.029-.318l-6.238-7.6a1.488,1.488,0,0,1-.319-.7l-1.154-6.352a1.5,1.5,0,0,1,.044-.706h0l2.157-6.916a1.491,1.491,0,0,1,.439-.676l6.306-6.086-5.618-1.331Zm-8.667.282,7.906-3.194a1.485,1.485,0,0,1,.992-.108l6.642,1.574v0a1.487,1.487,0,0,1,.848.554l1.1,1.454,0,0a1.494,1.494,0,0,1-.156,1.975l-7.051,6.8-1.937,6.21,1.021,5.624,5.153,6.282,1.054-.727,1-2.3a1.493,1.493,0,0,1,.841-.866l3.3-1.346v0a1.493,1.493,0,0,1,1.724,2.319l-3.434,4.267.661,5.708,3.764,4.506h0a1.463,1.463,0,0,1,.287.537l6.7,22.588,18.89-2.827-9.666-19.493h0a1.494,1.494,0,0,1-.154-.637l-.259-13.636a1.49,1.49,0,0,1,.028-.414l5-23.818-2.035-2.221-32.919-6.7-10.121,5.419-.6,1.677Z" fill="#1a1818" fill-rule="evenodd"/>
        <path id="Path_178" data-name="Path 178" d="M3554.2,216.6a1.493,1.493,0,1,1-2.819-.982l.87-2.475-3.5-4.572a1.444,1.444,0,0,1-.2-.362h0l-1.652-4.207a1.484,1.484,0,0,1,.01-1.114l1.055-3.172a1.491,1.491,0,0,1,2.831.936l-.919,2.759,1.382,3.515,3.856,5.043h0a1.491,1.491,0,0,1,.223,1.4Z" fill="#1a1818" fill-rule="evenodd"/>
        <path id="Path_179" data-name="Path 179" d="M3554.281,214.505a1.493,1.493,0,1,1-.713-2.9l2.578-.634.717-3.237-2.808-3.643a1.49,1.49,0,0,1,0-1.828l1.582-2.2a1.492,1.492,0,0,1,1.518-.588l3.8.693a1.491,1.491,0,0,1-.527,2.936l-2.922-.533-.416.58,2.556,3.315h0a1.49,1.49,0,0,1,.276,1.233l-1.051,4.743a1.494,1.494,0,0,1-1.118,1.212Z" fill="#1a1818" fill-rule="evenodd"/>
        <path id="Path_180" data-name="Path 180" d="M3534.466,133.955l.146,9.609-2.622,9.965.349,11.188,21.329,27.971,13.636,1.049,8.916-7.867,15.733-11.189,5.941-9.265,2.276-12.238,5.179-18.211-14.619-15.88-11.014-6.252-9.964-10.88-11.172,7.773-13.128,6.562Z" fill="#fff" fill-rule="evenodd"/>
        <path id="Path_181" data-name="Path 181" d="M3535.963,134.376l.14,9.171a1.524,1.524,0,0,1-.049.4h0l-2.569,9.761.327,10.484,20.634,27.059,12.345.95,8.438-7.444a1.408,1.408,0,0,1,.123-.1h0l15.5-11.02,5.631-8.782,2.221-11.942c.009-.048.02-.094.033-.14h0l4.949-17.407-13.9-15.094-10.808-6.135a1.476,1.476,0,0,1-.426-.363l-9.016-9.844-10.1,7.03a1.484,1.484,0,0,1-.3.161l-12.634,6.316-10.537,16.942Zm-2.845,9-.141-9.3a1.481,1.481,0,0,1,.22-.91l10.985-17.662,0,0a1.482,1.482,0,0,1,.6-.546l13-6.5,11.111-7.731,0,.005a1.489,1.489,0,0,1,1.949.217l9.8,10.7,10.757,6.106a1.491,1.491,0,0,1,.423.321L3606.4,133.9a1.494,1.494,0,0,1,.389,1.474l-5.169,18.179-2.243,12.059a1.475,1.475,0,0,1-.224.608l-5.941,9.265h0a1.49,1.49,0,0,1-.391.41l-15.681,11.151-8.768,7.736a1.49,1.49,0,0,1-1.176.442l-13.636-1.049v0a1.489,1.489,0,0,1-1.076-.583l-21.328-27.971h0a1.483,1.483,0,0,1-.305-.864l-.347-11.1a1.492,1.492,0,0,1,.044-.507Z" fill="#1a1818" fill-rule="evenodd"/>
        <path id="Path_182" data-name="Path 182" d="M3259.139,361.364l-16.259-13.286-2.272,13.986.175,38.46,58.74,3.148-.35-24.476Z" fill="#57c5e6" fill-rule="evenodd"/>
        <path id="Path_183" data-name="Path 183" d="M3242.18,395.419V362.767c0-1.855.906-6.32,1.261-8.75a19.893,19.893,0,0,0,.407-2.929c.775.207,2.92,2.171,3.649,2.786l9.058,7.388a11.467,11.467,0,0,0,4.01,2.424l25.072,11.156c3.047,1.464,5.987,2.617,9.057,4.052,2.084.973,2.969.495,3.028,3.406l-.011,13.12c-.012,2.231.24,3.972.24,6.434-2.62,0-4.508-.252-6.917-.234-1.529.012-1.942-.237-3.322-.252l-10.506-.458c-1.381-.015-1.793-.265-3.322-.253-2.983.023-11.044-.738-13.83-.708l-6.945-.444c-1.223-.137-2.5.067-3.714-.1l-6.977-.412c0-1.512-.238-1.99-.238-3.575Zm58.869,1.884c-.114-1.629-.248-3.225-.24-4.743.02-3.894-.02-7.791.008-11.686.018-2.581-.182-2.848-2.081-3.639-1.435-.6-2.574-1.107-3.964-1.756l-31.853-14.146c-.685-.308-1.17-.54-1.981-.88a4.852,4.852,0,0,1-1.779-1.081l-12.588-10.291c-2.031-1.606-2.363-2.521-4.153-2.521-1.263,0-1.261,2.083-1.463,3.3-.377,2.274-1.873,10.8-1.873,12.427v37.419c0,2.384,1.018,2.369,3.342,2.377l10.754.686c.935.105,1.893,0,2.833.027,2.025.06,5.263.5,8.1.48l32.82,1.739c.4.055.829.125,1.251.173h1.526a1.515,1.515,0,0,0,1.329-1.441l.011-.086Z" fill="#1a1818" fill-rule="evenodd"/>
        <path id="Path_184" data-name="Path 184" d="M3210.522,400.153l362.252-69.3,168.52,30.726V430.5H3210.522Z" fill="#fff" fill-rule="evenodd"/>
        <g id="Group_16" data-name="Group 16">
          <path id="Path_185" data-name="Path 185" d="M3210.33,398.669l362.163-69.278a1.48,1.48,0,0,1,.647.019l168.417,30.707a1.49,1.49,0,0,1,1.228,1.467h.006V430.5a1.5,1.5,0,0,1-1.5,1.5H3210.522a1.5,1.5,0,0,1-1.5-1.5v-30.35a1.5,1.5,0,0,1,1.305-1.484Zm362.459-66.292-360.77,69.011v27.619H3739.8V362.826l-167.008-30.449ZM3210.33,398.669l.192-.013A1.522,1.522,0,0,0,3210.33,398.669Z" fill="#1a1818" fill-rule="evenodd"/>
        </g>
        <path id="Path_186" data-name="Path 186" d="M3542.956,253.418l2.011,1.224,8.041,13.81-19.317,61.014-18.008-31.38-13.2-30.858,8.479-6.293Z" fill="#fff" fill-rule="evenodd"/>
        <path id="Path_187" data-name="Path 187" d="M3543.79,252.178l1.955,1.189a1.489,1.489,0,0,1,.515.526l8.04,13.811a1.488,1.488,0,0,1,.132,1.2h0l-19.316,61.014a1.5,1.5,0,0,1-2.743.261l-17.99-31.349a1.449,1.449,0,0,1-.106-.23l-13.168-30.785a1.492,1.492,0,0,1,.531-1.817l8.432-6.259a1.5,1.5,0,0,1,.55-.254v0l31.992-7.518a1.492,1.492,0,0,1,1.173.216Zm.078,3.542-1.163-.708-31.1,7.31-7.279,5.4,12.694,29.678,16.279,28.366,18.09-57.139Z" fill="#1a1818" fill-rule="evenodd"/>
        <path id="Path_188" data-name="Path 188" d="M3461.61,140.738l-36.012-8.391-9.791-.35-32.516,6.993-28.67,2.1-37.412,19.58-13.636,18.881-9.09,29.72-3.846,34.264-41.607,58.739-8.041,31.118.35,17.833,19.579,19.229,33.565,13.986L3368.6,372.9l42.657-3.5,8.391-29.718,37.062-52.446,19.579-26.922,15.036-10.14,8.041,8.041,2.8,9.092,15.034-.35,18.18-5.594,9.791-6.643-4.9-12.238-1.048-19.23-9.44-24.475L3516.5,181.645l-14.335-12.936Z" fill="#f197ab" fill-rule="evenodd"/>
        <path id="Path_189" data-name="Path 189" d="M3461,142.131l-35.618-8.3-9.436-.338-32.348,6.958a1.615,1.615,0,0,1-.2.028h0l-28.368,2.074-36.816,19.269-13.288,18.4-8.972,29.333-3.831,34.142a1.476,1.476,0,0,1-.34.8l-41.375,58.41-7.924,30.664.335,17.017,18.937,18.6,32.919,13.718,73.7-11.474c.038-.006.075-.01.111-.013v0L3410.107,368l8.108-28.716a1.494,1.494,0,0,1,.231-.477l37.047-52.426.012-.017h0l19.578-26.922a1.493,1.493,0,0,1,.375-.362h0l15.035-10.139a1.5,1.5,0,0,1,1.894.182h0l8.041,8.041a1.5,1.5,0,0,1,.4.728l2.432,7.9,13.694-.32,17.78-5.47,8.606-5.839-4.451-11.124a1.492,1.492,0,0,1-.106-.494l-1.034-18.978-9.275-24.046-13.063-16.846-14.189-12.8L3461,142.131Zm-35.066-11.24,36.013,8.391v0a1.451,1.451,0,0,1,.508.226l40.485,27.919a1.573,1.573,0,0,1,.226.168l14.335,12.936v0a1.5,1.5,0,0,1,.182.2l13.271,17.113.012.016,0,0a1.472,1.472,0,0,1,.211.374l9.419,24.418a1.514,1.514,0,0,1,.121.518l1.034,18.98,4.8,12.009h0a1.49,1.49,0,0,1-.547,1.788l-9.72,6.6a1.473,1.473,0,0,1-.468.241l-18.181,5.594h0a1.5,1.5,0,0,1-.409.065l-14.964.349a1.494,1.494,0,0,1-1.526-1.051l-2.686-8.729-6.913-6.912-13.8,9.3-19.422,26.706h0l-36.9,52.223-8.3,29.4a1.5,1.5,0,0,1-1.342,1.16l-42.657,3.5h0L3294.8,385.895a1.477,1.477,0,0,1-.9-.079l-33.565-13.986h0a1.5,1.5,0,0,1-.473-.314l-19.579-19.229h0a1.486,1.486,0,0,1-.446-1.034l-.35-17.784a1.486,1.486,0,0,1,.046-.452l8.041-31.118h0a1.487,1.487,0,0,1,.226-.485l41.382-58.419L3293,209.1h0a1.525,1.525,0,0,1,.055-.269l9.078-29.678a1.457,1.457,0,0,1,.229-.48L3316,159.8h0a1.487,1.487,0,0,1,.52-.45l37.31-19.527a1.472,1.472,0,0,1,.687-.223l28.566-2.089,32.416-6.972v0a1.5,1.5,0,0,1,.362-.032l9.7.348A1.463,1.463,0,0,1,3425.936,130.891Z" fill="#1a1818" fill-rule="evenodd"/>
        <path id="Path_190" data-name="Path 190" d="M3289.5,254.9a1.491,1.491,0,0,1,1.567-2.538l11.436,7.088,26.2,6.307,18.584,1.793a1.492,1.492,0,0,1-.281,2.97l-18.681-1.8v0a1.315,1.315,0,0,1-.2-.034l-26.494-6.378a1.477,1.477,0,0,1-.493-.193Z" fill="#1a1818" fill-rule="evenodd"/>
        <path id="Path_191" data-name="Path 191" d="M3500.74,262.826a1.492,1.492,0,0,1-.093-2.982l14.385-.485,16.167-4.8,10.8-6.933a1.493,1.493,0,1,1,1.614,2.513l-10.98,7.047h0a1.523,1.523,0,0,1-.386.176l-16.551,4.916h0a1.483,1.483,0,0,1-.374.059Z" fill="#1a1818" fill-rule="evenodd"/>
        <path id="Path_192" data-name="Path 192" d="M3560.237,178.929l-8.653-10.052,13.984,2.622,3.235,2.886,4.2-2.01,7.516,1.224-6.206,6.468-7.343,2.359Z" fill="#f197ab" fill-rule="evenodd"/>
        <path id="Path_193" data-name="Path 193" d="M3559.1,179.9l-8.653-10.052a1.5,1.5,0,0,1,1.508-2.425l13.885,2.6a1.482,1.482,0,0,1,.717.352h0l2.5,2.228,3.3-1.58a1.481,1.481,0,0,1,.882-.126v0l7.517,1.224a1.493,1.493,0,0,1,.836,2.508l-6.206,6.468a1.49,1.49,0,0,1-.661.4l-7.3,2.345a1.491,1.491,0,0,1-1.144-.1v0l-6.731-3.5a1.5,1.5,0,0,1-.444-.351Zm-3.6-8.775,5.686,6.606,5.924,3.078,6.386-2.051,3.979-4.147-4.254-.694-3.667,1.757a1.5,1.5,0,0,1-1.743-.177l-2.928-2.613Z" fill="#1a1818" fill-rule="evenodd"/>
        <path id="Path_194" data-name="Path 194" d="M3493.951,172.03l18.531-11.888,8.391,12.413.18,13.229-1.578,8.973-2.536,2.186-2.534-2.01-.874-14.335-1.224,17.83-3.235,2.536-4.2-3.76.087-11.888-.793-4.9-2.353,18.013-2.8,2.1L3495.7,197.9Z" fill="#fff" fill-rule="evenodd"/>
        <path id="Path_195" data-name="Path 195" d="M3493.187,170.746l18.489-11.861a1.494,1.494,0,0,1,2.045.422h0l8.391,12.413a1.5,1.5,0,0,1,.253.925l.178,13.122a1.441,1.441,0,0,1-.021.274h0l-1.579,8.974a1.49,1.49,0,0,1-.575.938l-2.458,2.118a1.492,1.492,0,0,1-1.9.039v0l-2.07-1.642-.141,2.057a1.492,1.492,0,0,1-.646,1.133l-3.162,2.478a1.49,1.49,0,0,1-1.946-.1l-4.162-3.728a1.49,1.49,0,0,1-.45-.741l-.136,1.047a1.489,1.489,0,0,1-.613,1.02l-2.769,2.078a1.492,1.492,0,0,1-1.857-.054l-3.282-2.591a1.487,1.487,0,0,1-.563-1.071h0l-1.748-25.874a1.5,1.5,0,0,1,.726-1.384Zm18.873-8.559L3495.5,172.81l1.644,24.338,1.9,1.5,1.376-1.033,2.269-17.362a1.492,1.492,0,0,1,2.956-.07l.793,4.9h0a1.465,1.465,0,0,1,.018.24l-.082,11.221,2.764,2.476,1.726-1.353,1.177-17.168h0a1.493,1.493,0,0,1,2.981.012l.833,13.666,1.046.83,1.193-1.028,1.467-8.338-.172-12.612Z" fill="#1a1818" fill-rule="evenodd"/>
        <path id="Path_196" data-name="Path 196" d="M3481.822,77.45l31.924,7.37,15.28,9.148,1.924,16.259-3.148,14.86.35,5.944-8.391,12.062-1.224,11.888-2.273,7.167-16.083,15.21-5.944,10.14-31.643,2.447-6.819,2.8-2.1,6.468-7.868,10.315-16.258,3.5-19.4-15.034-10.49-24.825-1.923-19.929,5.768-9.789,11.887-6.644,4.721-.7,6.643-7.867-1.664-7.428-.35-19.057,7.43-9,20.629.875Z" fill="#fff" fill-rule="evenodd"/>
        <path id="Path_197" data-name="Path 197" d="M3482.154,76l31.924,7.37a1.48,1.48,0,0,1,.493.211l15.22,9.112a1.49,1.49,0,0,1,.716,1.106h0l1.924,16.26a1.467,1.467,0,0,1-.036.547l-3.093,14.6.338,5.741a1.486,1.486,0,0,1-.264.94h0l-8.174,11.751-1.184,11.5a1.516,1.516,0,0,1-.061.3h0l-2.274,7.168a1.493,1.493,0,0,1-.508.731l-15.818,14.959-5.841,9.963a1.488,1.488,0,0,1-1.175.733v0l-31.415,2.43-5.951,2.44-1.883,5.807a1.474,1.474,0,0,1-.234.45h0L3447,210.433a1.486,1.486,0,0,1-.877.554h0l-16.257,3.5a1.492,1.492,0,0,1-1.284-.329l-19.343-14.987a1.49,1.49,0,0,1-.487-.661l-10.464-24.766a1.474,1.474,0,0,1-.111-.438h0l-1.922-19.929a1.482,1.482,0,0,1,.219-.93l5.747-9.754a1.477,1.477,0,0,1,.562-.549h0l11.888-6.645a1.485,1.485,0,0,1,.509-.173v0l4.161-.616,5.8-6.871-1.5-6.706a1.533,1.533,0,0,1-.036-.3l-.35-19.058a1.48,1.48,0,0,1,.339-.97l7.431-9a1.486,1.486,0,0,1,1.21-.543h0l20.214.857L3481.1,76.146a1.491,1.491,0,0,1,1.058-.15Zm31.03,10.228-31.141-7.189-28.489,15.874a1.485,1.485,0,0,1-.812.2l-19.893-.844-6.607,8.005.337,18.356,1.611,7.19a1.493,1.493,0,0,1-.295,1.379l-6.6,7.821a1.486,1.486,0,0,1-.963.561l-4.455.659-11.29,6.311-5.316,9.022,1.854,19.223,10.247,24.25,18.548,14.371,15.042-3.235,7.381-9.675,2.016-6.219h0a1.492,1.492,0,0,1,.853-.924l6.724-2.757a1.494,1.494,0,0,1,.551-.15l30.865-2.387,5.547-9.464v0a1.49,1.49,0,0,1,.262-.329l15.793-14.935,2.118-6.681,1.2-11.635a1.5,1.5,0,0,1,.266-.787l8.1-11.64-.317-5.37a1.509,1.509,0,0,1,.026-.452l3.1-14.615-1.81-15.293Z" fill="#1a1818" fill-rule="evenodd"/>
        <path id="Path_198" data-name="Path 198" d="M3531.817,75.878l3.147,8.041-.524,11.715-4.2,6.643-9.09-2.972-4.37,5.069-6.12-6.993L3475.7,94.933l.7,16.259-2.272,6.119-9.965-2.972-10.489,26.922,13.46,19.93v7.516l10.664-5.594,12.916,1.331,7.914,5.138,9.414.263L3500,177.362l-5.681,10.315-3.235,8.479-6.469,5.158-9.09-1.136-13.2-8.217L3439.162,166l-2.273-16.171,10.489-10.664.788-20.542-11.278-18.444-8.566,2.361-2.885,10.313-.349,8.042-2.186-5.77.788-30.856,6.031-18.444,18.444-18.181,19.055-7.868,18.182-.7,16.521,7.342,19.143,15.909Z" fill="#57c5e6" fill-rule="evenodd"/>
        <path id="Path_199" data-name="Path 199" d="M3533.216,75.356l3.14,8.019a1.487,1.487,0,0,1,.1.683l-.521,11.64a1.484,1.484,0,0,1-.238.745l-4.186,6.629a1.494,1.494,0,0,1-1.725.624v0l-8.149-2.665-3.721,4.317a1.493,1.493,0,0,1-2.105.152,1.579,1.579,0,0,1-.176-.181l-5.682-6.493-32.686-2.288.626,14.594a1.467,1.467,0,0,1-.114.633l-2.251,6.064a1.492,1.492,0,0,1-1.823.909v0l-8.648-2.579-9.7,24.906,13.025,19.285a1.494,1.494,0,0,1,.256.836h0v5.049l8.477-4.447a1.489,1.489,0,0,1,.842-.161v0l12.916,1.33a1.487,1.487,0,0,1,.705.263l7.518,4.881,8.994.251a1.491,1.491,0,0,1,.975,2.582l0,0-7.866,7.351-5.513,10.011-3.2,8.387a1.489,1.489,0,0,1-.513.675l-6.422,5.12a1.494,1.494,0,0,1-1.111.314v0l-9.091-1.137a1.476,1.476,0,0,1-.673-.257l-13.133-8.176a1.511,1.511,0,0,1-.327-.275h0l-23.163-25.961a1.489,1.489,0,0,1-.372-.852l-2.264-16.108a1.492,1.492,0,0,1,.448-1.285l10.051-10.219.748-19.512-10.457-17.1-3.963-.163-3.118,2.6-2.2,8.734-.341,7.871a1.493,1.493,0,0,1-2.888.462h0l-2.187-5.77a1.5,1.5,0,0,1-.092-.636l.786-30.781a1.5,1.5,0,0,1,.073-.426h0l6.032-18.443a1.477,1.477,0,0,1,.425-.653l18.393-18.13a1.475,1.475,0,0,1,.524-.334l19.011-7.85a1.492,1.492,0,0,1,.523-.112l18.173-.7a1.488,1.488,0,0,1,.737.165l16.439,7.305a1.5,1.5,0,0,1,.35.217h0l19.143,15.909a1.566,1.566,0,0,1,.214.218l0,0,10.75,13.549a1.47,1.47,0,0,1,.23.408Zm.243,8.816-2.952-7.542-10.526-13.265L3501.127,47.7l-16.008-7.115-17.575.676-18.538,7.654L3431.03,66.632l-5.855,17.9-.666,26.1,1.963-7.891a1.684,1.684,0,0,1,.55-.867l2.946-2.368c1.27-.921.956-.744,2.516-.785l4.236.084a1.558,1.558,0,0,1,1.442.594l11.278,18.444h0a1.487,1.487,0,0,1,.217.83l-.786,20.513a1.487,1.487,0,0,1-.428,1.023l-9.972,10.139,2.107,14.991,22.723,25.466,12.732,7.927,8.146,1.019,5.653-4.508,3.09-8.1h0a1.571,1.571,0,0,1,.087-.187l5.681-10.316a1.487,1.487,0,0,1,.292-.374l5.386-5.034-5.743-.16a1.482,1.482,0,0,1-.81-.241l-7.61-4.941-12.117-1.248-10.14,5.318a1.5,1.5,0,0,1-2.311-1.255v-7.062l-13.2-19.549,0,0a1.49,1.49,0,0,1-.154-1.372l10.458-26.843a1.494,1.494,0,0,1,1.849-.973l8.628,2.573,1.678-4.522-.681-15.882a1.49,1.49,0,0,1,1.586-1.633l34.963,2.447v0a1.488,1.488,0,0,1,1.023.506l4.989,5.7,3.194-3.705a1.494,1.494,0,0,1,1.647-.511l7.988,2.613,3.363-5.324Z" fill="#1a1818" fill-rule="evenodd"/>
        <path id="Path_200" data-name="Path 200" d="M3497.691,180.714l1.291-2.371,3.008-3.148-6.854-.374-6.494-4.032-12-1.431,6.056,7,9.647,5.458Z" fill="#fff" fill-rule="evenodd"/>
        <path id="Path_201" data-name="Path 201" d="M3496.713,179.392l.96-1.763a1.476,1.476,0,0,1,.229-.314h0l.769-.8-3.611-.2a1.488,1.488,0,0,1-.712-.224v0l-6.208-3.855-7.848-.936,3.364,3.89,8.935,5.055,4.124-.852Zm3.481-.157-1.178,2.164a1.488,1.488,0,0,1-1.027.776l-5.309,1.1a1.485,1.485,0,0,1-1.075-.155l-9.647-5.457a1.494,1.494,0,0,1-.391-.322l-5.993-6.93a1.495,1.495,0,0,1,1.24-2.534l12,1.432h0a1.489,1.489,0,0,1,.614.216l6.17,3.831,6.465.352a1.492,1.492,0,0,1,1.005,2.52Z" fill="#1a1818" fill-rule="evenodd"/>
        <path id="Path_202" data-name="Path 202" d="M3425.45,128.954a1.492,1.492,0,0,1,2.4-1.778l5.128,6.893,3.88,2.046,3.632-1.557a1.493,1.493,0,1,1,1.169,2.747l-4.283,1.837a1.489,1.489,0,0,1-1.28-.053l-4.808-2.536h0a1.489,1.489,0,0,1-.5-.432Z" fill="#1a1818" fill-rule="evenodd"/>
        <path id="Path_203" data-name="Path 203" d="M3403.16,383.877l-.086,3.277-.087,3.5,101.134,27.886,7.081-.087L3545.64,377.1l-18.181-16.432-117.129,18.18Z" fill="#57c5e6" fill-rule="evenodd"/>
        <path id="Path_204" data-name="Path 204" d="M3404.631,384.666l-.066,2.523-.059,2.332,99.813,27.52,6.178-.076,33.082-39.718-16.591-15L3410.9,380.27l-6.27,4.4Zm-3.048,2.453.087-3.277h0a1.489,1.489,0,0,1,.636-1.187l7.137-5a1.476,1.476,0,0,1,.659-.274L3527.232,359.2h0a1.489,1.489,0,0,1,1.228.367l18.163,16.418a1.489,1.489,0,0,1,.163,2.072l-34.412,41.314a1.487,1.487,0,0,1-1.155.57l-7.014.086a1.5,1.5,0,0,1-.481-.051l-101.135-27.885h0a1.493,1.493,0,0,1-1.094-1.473Z" fill="#1a1818" fill-rule="evenodd"/>
        <path id="Path_205" data-name="Path 205" d="M3524.7,384.707l-11.014,20.978L3468.935,393.8l41.083-9.615Z" fill="#fff28b" fill-rule="evenodd"/>
        <path id="Path_206" data-name="Path 206" d="M3526.024,385.4l-11.014,20.979a1.5,1.5,0,0,1-1.708.747l-44.748-11.887a1.493,1.493,0,0,1,.041-2.9h0l41.084-9.616a1.514,1.514,0,0,1,.491-.031l14.586.521a1.491,1.491,0,0,1,1.267,2.185Zm-13.1,18.534,9.358-17.823-12.1-.432L3475.1,393.89Z" fill="#1a1818" fill-rule="evenodd"/>
        <path id="Path_207" data-name="Path 207" d="M3285.213,303.582l1.143-21.569,3.753-21.261,9.615,6.469,28.321,6.993,19.231,1.574,1.805,16.859-.932,18.454-2.8,21.5,45.1,16.083,72.9,3.5,32.692-9.789,6.817-3.672,8.741,1.4,14.335,10.664-6.993,44.055-18.531-15.385-5.77.874-12.587,4.9L3467.2,387.5l-20.279-2.271L3443.6,383.3l-27.271-.525-10.664,2.1-2.623,1.574-65.208-2.273-48.95-40.384Z" fill="#fff" fill-rule="evenodd"/>
        <path id="Path_208" data-name="Path 208" d="M3283.722,303.506l1.143-21.569a1.345,1.345,0,0,1,.021-.181h0l3.753-21.261a1.5,1.5,0,0,1,2.4-.921l9.3,6.259,27.936,6.9,19.121,1.565a1.5,1.5,0,0,1,1.377,1.411l1.8,16.78a1.479,1.479,0,0,1,0,.288l-.928,18.395a1.457,1.457,0,0,1-.019.177l-2.635,20.253,43.767,15.607,72.414,3.473,32.311-9.675,6.68-3.6a1.489,1.489,0,0,1,1.015-.146l8.669,1.387a1.48,1.48,0,0,1,.654.275l14.335,10.665a1.491,1.491,0,0,1,.577,1.477l-6.985,44.01a1.492,1.492,0,0,1-2.476.871l-17.961-14.911-4.966.751-12.42,4.832a1.51,1.51,0,0,1-.316.084v0l-14.859,2.271a1.5,1.5,0,0,1-.464,0l-20.2-2.263a1.492,1.492,0,0,1-.633-.221l-2.944-1.7-26.7-.513L3406.2,386.3l-2.393,1.435a1.478,1.478,0,0,1-.848.209l-65.172-2.272a1.482,1.482,0,0,1-.93-.363l-48.92-40.36a1.484,1.484,0,0,1-.538-1.017h0l-3.672-40.211a1.316,1.316,0,0,1,0-.21Zm4.119-21.3-1.133,21.362,3.6,39.472,48.079,39.665,64.261,2.241,2.156-1.294a1.484,1.484,0,0,1,.57-.241l10.664-2.1v0a1.5,1.5,0,0,1,.309-.027l27.2.522a1.489,1.489,0,0,1,.8.2l3.05,1.767,19.767,2.214,14.525-2.22,12.315-4.791a1.47,1.47,0,0,1,.421-.128l5.769-.873v.005a1.487,1.487,0,0,1,1.174.328l16.516,13.711,6.44-40.578-13.317-9.908-7.878-1.261-6.324,3.408a1.557,1.557,0,0,1-.333.145l-32.691,9.788v0a1.482,1.482,0,0,1-.5.061l-72.831-3.493a1.491,1.491,0,0,1-.5-.086l-45.1-16.084h0a1.494,1.494,0,0,1-.983-1.6l2.789-21.432.923-18.285-1.662-15.517-18-1.472v0a1.538,1.538,0,0,1-.24-.039l-28.321-6.994h0a1.494,1.494,0,0,1-.473-.209l-7.711-5.188Z" fill="#1a1818" fill-rule="evenodd"/>
        <path id="Path_209" data-name="Path 209" d="M3291.593,260.8a1.492,1.492,0,1,1-2.982-.082l.525-17.394a1.492,1.492,0,1,1,2.982.082Z" fill="#1a1818" fill-rule="evenodd"/>
        <path id="Path_210" data-name="Path 210" d="M3348.667,275.6a1.493,1.493,0,1,1-2.982-.14l.874-18.531a1.49,1.49,0,0,1,.435-.985l0,0,9.676-9.675,4.716-19.037-2.858-16.565-5.612-13.633-17.01-15.989-14.443-4.954-10.53.834-6.442,4.391a1.494,1.494,0,1,1-1.684-2.467l6.711-4.575a1.49,1.49,0,0,1,.788-.3l11.191-.886a1.49,1.49,0,0,1,.644.073l15.034,5.157v0a1.469,1.469,0,0,1,.539.325l17.481,16.433h0a1.482,1.482,0,0,1,.358.519l5.767,14.009a1.471,1.471,0,0,1,.13.4l2.936,17.02h0a1.5,1.5,0,0,1-.022.608l-4.869,19.659a1.482,1.482,0,0,1-.416.8l-9.56,9.559Z" fill="#1a1818" fill-rule="evenodd"/>
        <path id="Path_211" data-name="Path 211" d="M3280.946,343.264l13.647-5.2,35.066-1.138,13.648,3.792-.947,37.339-2.774,22.395-7.083,10.777-20.282,5.307-19.334-3.412-8.909-13.267-1.48-12.964-19.179-21.724-2.15-14.4,9.92-9.109,9.857,1.6Zm-.19,8.1-7.351-1.122-4.021,4.314,1.136,7.014,10.589,12.6Z" fill="#fff28b" fill-rule="evenodd"/>
        <g id="Group_17" data-name="Group 17">
          <path id="Path_212" data-name="Path 212" d="M3280.785,341.726l13.277-5.06a1.468,1.468,0,0,1,.587-.1l34.964-1.135a1.48,1.48,0,0,1,.444.053h0l13.647,3.791a1.492,1.492,0,0,1,1.091,1.536l-.945,37.278a1.427,1.427,0,0,1-.01.145h0l-2.774,22.394a1.489,1.489,0,0,1-.315.75l-7.008,10.665a1.483,1.483,0,0,1-.871.623v0l-20.282,5.307a1.484,1.484,0,0,1-.631.025v0L3292.63,414.6a1.49,1.49,0,0,1-1.039-.727l-8.853-13.183a1.472,1.472,0,0,1-.242-.661h0l-1.428-12.5L3262.2,366.156a1.493,1.493,0,0,1-.359-.772h0l-2.15-14.4a1.5,1.5,0,0,1,.513-1.357l9.874-9.066a1.49,1.49,0,0,1,1.308-.365l9.4,1.526Zm14.117-2.181-13.424,5.116v0a1.5,1.5,0,0,1-.77.078l-9.141-1.484-8.8,8.081,1.968,13.183,18.815,21.312a1.491,1.491,0,0,1,.434.893l1.44,12.609,8.347,12.429,18.4,3.247,19.407-5.078,6.569-9.995,2.729-22.036.914-36.055-12.308-3.42-34.576,1.122Zm49.893,1.269-.051.3a1.424,1.424,0,0,0,.051-.3Zm-62.547,10.641a1.5,1.5,0,0,0-1.27-1.572l-7.351-1.122v0a1.491,1.491,0,0,0-1.315.46l-4.022,4.314v0a1.488,1.488,0,0,0-.38,1.249l1.136,7.014h0a1.469,1.469,0,0,0,.331.725l10.55,12.549a1.491,1.491,0,0,0,2.671-.929l-.353-22.691ZM3279.554,370l-.27-17.348-5.326-.813-2.985,3.2.954,5.887Z" fill="#1a1818" fill-rule="evenodd"/>
        </g>
        <path id="Path_213" data-name="Path 213" d="M3280.5,345.083a1.491,1.491,0,0,1,.865-2.853l12.469,3.815,34.031-.936,14-4.852a1.49,1.49,0,1,1,.971,2.818l-14.148,4.9a1.5,1.5,0,0,1-.513.106l-34.5.948h0a1.5,1.5,0,0,1-.474-.065Z" fill="#1a1818" fill-rule="evenodd"/>
        <path id="Path_214" data-name="Path 214" d="M3522.845,378.771a1.492,1.492,0,1,1-1.953,2.256L3508.5,370.356l-5.106-2.074-14.026.171a1.491,1.491,0,0,1-.035-2.982l14.224-.173a1.486,1.486,0,0,1,.691.1l5.594,2.272v0a1.491,1.491,0,0,1,.416.255Z" fill="#1a1818" fill-rule="evenodd"/>
        <path id="Path_215" data-name="Path 215" d="M3525.252,364.636a1.491,1.491,0,0,1-2.572,1.508l-2.741-4.678-4.7-2.274h-13.127a1.5,1.5,0,1,1,0-2.993h13.462v0a1.5,1.5,0,0,1,.649.149l5.419,2.622v0a1.476,1.476,0,0,1,.638.589Z" fill="#1a1818" fill-rule="evenodd"/>
        <path id="Path_216" data-name="Path 216" d="M3711.583,239.6,3556.167,248l-7.516,5.6-39.859,161.533,3.845,6.118,156.288-37.236,5.945-7.867L3713.856,245.9Z" fill="#57c5e6" fill-rule="evenodd"/>
        <path id="Path_217" data-name="Path 217" d="M3710.559,241.155,3556.7,249.462l-6.723,5-39.58,160.4,2.937,4.673,154.728-36.865,5.458-7.222,38.769-129.517-1.726-4.781Zm-154.468,5.35,155.416-8.391v0a1.49,1.49,0,0,1,1.479.986l2.235,6.188a1.49,1.49,0,0,1,.067,1.035l-38.977,130.214a1.484,1.484,0,0,1-.248.5l-5.907,7.816a1.489,1.489,0,0,1-.886.607L3512.982,422.7v0a1.491,1.491,0,0,1-1.606-.657l-3.825-6.086a1.489,1.489,0,0,1-.208-1.185L3547.2,253.235h0a1.486,1.486,0,0,1,.56-.842l7.476-5.565A1.49,1.49,0,0,1,3556.091,246.505Z" fill="#1a1818" fill-rule="evenodd"/>
        <path id="Path_218" data-name="Path 218" d="M3324.58,329.286l8.171-33.979L3316.84,326l1.1,20.78,7.569-.165Z" fill="#fff" fill-rule="evenodd"/>
        <path id="Path_219" data-name="Path 219" d="M3323.149,328.851l5.281-21.957-10.075,19.434,1.005,18.928,4.577-.1-.85-15.794a1.5,1.5,0,0,1,.062-.511Zm11.054-33.2-8.119,33.763.922,17.123h0l0,.047a1.494,1.494,0,0,1-1.464,1.522l-7.5.164h-.023a1.494,1.494,0,0,1-1.569-1.417l-1.1-20.74a1.48,1.48,0,0,1,.162-.8l15.91-30.693h0a1.493,1.493,0,0,1,2.779,1.03Z" fill="#1a1818" fill-rule="evenodd"/>
        <path id="Path_220" data-name="Path 220" d="M3301.907,324.072l2.594,23.089-9.561.232-4.27-23.708L3309.3,279.23l-11.333-53.085,23.517,53Z" fill="#fff" fill-rule="evenodd"/>
        <path id="Path_221" data-name="Path 221" d="M3303.441,324.3l2.55,22.7a1.5,1.5,0,0,1-1.326,1.654,1.478,1.478,0,0,1-.22.008l-9.47.23a1.5,1.5,0,0,1-1.514-1.273l-4.263-23.667a1.485,1.485,0,0,1,.09-.837l0,0,18.447-44.026L3296.5,226.456a1.5,1.5,0,0,1,2.839-.915h0l23.516,53a1.494,1.494,0,0,1-.032,1.276L3303.441,324.3Zm-.612,21.406-2.412-21.469h0a1.487,1.487,0,0,1,.116-.762l19.308-44.319-17.4-39.225,8.323,38.99a1.5,1.5,0,0,1-.081.886l-18.46,44.056,3.964,22.006Z" fill="#1a1818" fill-rule="evenodd"/>
        <path id="Path_222" data-name="Path 222" d="M3299.924,188.287l19.487,22.76,5.069,40.626-13.14-34.921L3288,190.69l16.877-49.456Z" fill="#fff" fill-rule="evenodd"/>
        <path id="Path_223" data-name="Path 223" d="M3301.476,187.8l19.069,22.273a1.482,1.482,0,0,1,.348.789h0l5.069,40.625a1.5,1.5,0,0,1-2.917.617l-13.009-34.575-23.151-25.849a1.487,1.487,0,0,1-.3-1.472l0,0,16.877-49.455a1.494,1.494,0,0,1,2.892.7l-4.877,46.348Zm16.5,23.869-19.191-22.415a1.492,1.492,0,0,1-.351-1.123L3302,154.281l-12.309,36.067,22.7,25.344a1.487,1.487,0,0,1,.346.534l8.7,23.11Z" fill="#1a1818" fill-rule="evenodd"/>
        <path id="Path_224" data-name="Path 224" d="M3324.487,157.6l.017-25.2,8.413,26.161-7.384,22.592,2.954,24.591-13-24.032Z" fill="#fff" fill-rule="evenodd"/>
        <path id="Path_225" data-name="Path 225" d="M3323,157.325l.016-24.933a1.491,1.491,0,0,1,2.911-.456h0l8.414,26.161a1.5,1.5,0,0,1,0,.918h0l-7.282,22.278,2.916,24.269a1.5,1.5,0,0,1-2.834.821l-12.968-23.97a1.5,1.5,0,0,1-.051-1.31L3323,157.325Zm2.991-15.446-.011,15.68a1.491,1.491,0,0,1-.093.557l-8.764,23.472,8.947,16.537-2.019-16.8h0a1.486,1.486,0,0,1,.063-.638l7.236-22.137Z" fill="#1a1818" fill-rule="evenodd"/>
        <path id="Path_226" data-name="Path 226" d="M3307.658,115.91l7.034,24.942,1.894-23.656,7.176-26.034Z" fill="#fff" fill-rule="evenodd"/>
        <path id="Path_227" data-name="Path 227" d="M3309.278,116.154l4.589,16.27,1.228-15.346a1.538,1.538,0,0,1,.08-.38l4.594-16.667-10.491,16.123Zm8.788,1.285-1.885,23.536a1.494,1.494,0,0,1-2.924.292l-.005-.018-7.032-24.936h0a1.49,1.49,0,0,1,.184-1.215l16.009-24.6a1.5,1.5,0,0,1,2.793,1.025l-.008.031Z" fill="#1a1818" fill-rule="evenodd"/>
        <path id="Path_228" data-name="Path 228" d="M3416.846,132.021c.313.762.1.959-.663,1.272l-15.667,6.472-8.206,11.981,1.183,21.639,9.921,26.342,22.729,19.194,21.776-5.113,9.212-13.654v-8.277a1.491,1.491,0,0,1,2.982,0v8.63a1.5,1.5,0,0,1-.251.947l-9.791,14.511h0a1.487,1.487,0,0,1-.9.62L3426.094,222h0a1.489,1.489,0,0,1-1.3-.314l-23.6-19.93h0a1.5,1.5,0,0,1-.433-.614l-10.13-26.9a1.472,1.472,0,0,1-.1-.475l-1.22-22.323a1.48,1.48,0,0,1,.254-.971l8.741-12.763h0a1.486,1.486,0,0,1,.665-.539l15.121-6.246C3415.337,131.126,3416.51,131.2,3416.846,132.021Z" fill="#1a1818" fill-rule="evenodd"/>
      </g>
    </g>
  </g>
</svg>
